<?xml version="1.0" standalone="no"?>
<!DOCTYPE svg PUBLIC "-//W3C//DTD SVG 20010904//EN"
 "http://www.w3.org/TR/2001/REC-SVG-20010904/DTD/svg10.dtd">
<svg version="1.0" xmlns="http://www.w3.org/2000/svg"
 width="512.000000pt" height="512.000000pt" viewBox="0 0 512.000000 512.000000"
 preserveAspectRatio="xMidYMid meet">
<metadata>
Created by potrace 1.16, written by Peter Selinger 2001-2019
</metadata>
<g transform="translate(0.000000,512.000000) scale(0.100000,-0.100000)"
fill="#000000" stroke="none">
<path d="M2265 5049 c-558 -67 -1076 -319 -1475 -719 -398 -397 -642 -893
-715 -1453 -20 -156 -20 -478 0 -634 36 -271 112 -527 229 -768 132 -272 276
-476 486 -685 323 -324 728 -554 1162 -660 233 -57 309 -65 613 -65 248 0 295
3 408 23 270 49 501 126 732 246 248 128 431 261 625 456 204 203 335 385 471
655 128 254 206 510 244 798 20 156 20 478 0 634 -73 556 -320 1058 -715 1453
-209 210 -412 354 -685 486 -223 108 -411 168 -672 215 -95 17 -167 22 -373
25 -140 1 -291 -2 -335 -7z m575 -914 c203 -31 399 -100 565 -200 136 -81 213
-142 320 -250 211 -214 351 -477 416 -785 30 -139 32 -416 6 -560 -116 -620
-606 -1122 -1222 -1251 -334 -69 -642 -38 -960 97 -61 25 -121 48 -135 50 -14
3 -204 -53 -445 -129 -231 -73 -421 -130 -423 -127 -1 3 61 187 138 409 l140
403 -54 111 c-130 265 -183 522 -165 802 38 579 414 1097 961 1325 112 47 249
85 375 104 119 19 365 19 483 1z"/>
<path d="M2440 3920 c-514 -64 -943 -402 -1114 -878 -95 -264 -95 -600 0 -864
33 -92 91 -207 139 -278 21 -30 38 -63 37 -73 0 -10 -35 -122 -77 -248 -43
-127 -75 -232 -73 -234 2 -2 119 32 260 76 l256 79 69 -39 c216 -122 455 -178
718 -168 197 8 347 43 525 124 258 117 511 368 635 629 369 777 -112 1695
-974 1858 -104 20 -304 28 -401 16z m-295 -641 c17 -18 165 -366 165 -389 0
-9 -34 -56 -75 -103 -45 -51 -75 -94 -75 -108 0 -34 106 -185 187 -265 85 -84
207 -168 316 -219 118 -55 119 -54 232 98 28 37 59 69 71 72 23 7 367 -144
398 -175 18 -17 18 -21 2 -91 -20 -90 -51 -144 -116 -202 -76 -69 -143 -91
-265 -91 -86 0 -113 4 -195 33 -335 114 -609 318 -832 617 -232 313 -258 579
-75 773 60 63 83 73 170 68 50 -2 83 -9 92 -18z"/>
</g>
</svg>
