<?xml version="1.0" standalone="no"?>
<!DOCTYPE svg PUBLIC "-//W3C//DTD SVG 20010904//EN"
 "http://www.w3.org/TR/2001/REC-SVG-20010904/DTD/svg10.dtd">
<svg version="1.0" xmlns="http://www.w3.org/2000/svg"
 width="512.000000pt" height="512.000000pt" viewBox="0 0 512.000000 512.000000"
 preserveAspectRatio="xMidYMid meet">

<g transform="translate(0.000000,512.000000) scale(0.100000,-0.100000)"
fill="#000000" stroke="none">
<path d="M755 4773 c-145 -20 -273 -113 -333 -241 -64 -140 -50 -344 32 -466
l20 -29 -25 -16 c-75 -49 -121 -111 -256 -346 -160 -280 -183 -332 -190 -429
-15 -193 79 -339 292 -455 61 -33 115 -64 122 -68 8 -6 5 -29 -13 -88 -36
-117 -23 -158 57 -187 l35 -13 -118 -715 c-64 -393 -118 -737 -119 -763 -1
-61 20 -93 71 -107 l40 -11 0 -77 c0 -42 3 -87 6 -99 6 -22 4 -23 -76 -23 -77
0 -83 -2 -111 -29 -51 -51 -33 -137 33 -160 21 -8 289 -11 840 -11 864 0 861
0 887 48 21 39 13 91 -18 123 l-29 29 -205 0 -205 0 -7 32 c-13 60 -75 164
-132 221 -31 32 -61 57 -65 57 -4 0 -8 335 -8 744 l0 744 94 4 c77 2 100 7
123 24 54 41 53 56 -36 354 l-82 272 3 146 3 147 185 5 c175 5 188 6 243 32
36 17 87 55 131 98 40 38 75 70 78 70 4 0 70 -73 148 -162 78 -90 158 -171
177 -182 30 -17 38 -17 71 -5 43 17 74 68 65 111 -3 16 -70 102 -159 204 -85
98 -154 180 -154 184 0 3 16 21 35 40 30 29 36 32 52 19 57 -45 1463 -1352
1461 -1358 -2 -3 -85 -128 -185 -278 -238 -355 -246 -370 -251 -487 -4 -90 -3
-94 81 -371 59 -196 81 -282 73 -287 -16 -11 -197 -71 -200 -67 -2 2 -79 154
-172 337 l-169 333 0 92 c0 114 -4 106 212 425 102 150 166 255 169 275 3 21
-1 42 -14 62 -39 61 -324 376 -350 386 -37 14 -78 2 -107 -33 -30 -35 -32 -72
-6 -113 10 -16 71 -90 135 -162 64 -73 116 -135 116 -138 0 -3 -65 -101 -144
-218 -162 -239 -178 -267 -201 -358 -22 -84 -16 -221 14 -300 12 -30 91 -192
176 -358 85 -167 155 -307 155 -312 0 -4 -12 -21 -26 -36 -65 -70 -100 -191
-90 -311 10 -122 46 -178 114 -175 48 2 562 155 604 180 49 28 87 90 94 148 4
40 -2 76 -31 174 -20 68 -43 143 -51 165 -8 23 -53 167 -101 321 -90 297 -98
346 -67 408 9 17 112 174 229 347 119 176 237 364 268 425 30 61 75 147 99
193 l45 83 206 -165 205 -165 12 -56 c21 -99 106 -184 208 -205 126 -27 255
43 328 180 28 52 26 171 -4 227 -28 54 -81 105 -131 128 -22 9 -42 23 -44 29
-8 20 -704 965 -741 1006 -18 21 -48 46 -65 56 -17 10 -30 21 -28 24 107 184
95 413 -29 558 -190 223 -551 177 -676 -86 -76 -158 -55 -372 48 -495 l23 -28
-34 -45 c-19 -25 -41 -69 -49 -97 -11 -39 -76 -494 -76 -532 0 -5 -588 536
-845 777 l-60 56 23 25 c16 17 39 27 75 31 84 12 138 41 215 119 88 89 115
145 114 238 0 96 -25 144 -130 251 -100 103 -145 132 -222 146 -111 20 -190
-11 -292 -115 -71 -72 -102 -128 -113 -205 l-7 -47 -105 97 c-131 122 -174
146 -268 146 -81 0 -136 -22 -197 -81 -56 -55 -81 -121 -76 -207 5 -88 23
-127 100 -211 l60 -65 -202 0 -202 0 15 23 c50 76 63 263 27 381 -40 129 -147
234 -280 274 -44 13 -125 20 -165 15z m132 -214 c40 -15 101 -79 118 -124 13
-32 16 -66 14 -127 -3 -72 -8 -91 -32 -126 -79 -120 -239 -136 -341 -35 -86
86 -87 268 -2 361 55 62 157 83 243 51z m1555 11 c18 0 150 -134 164 -167 18
-41 6 -74 -44 -127 -49 -51 -92 -69 -129 -55 -38 14 -152 126 -169 166 -10 24
-11 39 -3 60 22 59 122 140 157 128 8 -3 18 -5 24 -5z m-639 -218 c48 -48 87
-89 87 -92 0 -3 -29 -24 -64 -47 l-63 -41 -82 82 c-63 63 -81 88 -81 109 0 57
39 92 90 81 14 -3 64 -44 113 -92z m2025 -17 c47 -20 79 -50 105 -100 28 -54
29 -183 3 -235 -69 -134 -226 -166 -332 -68 -119 109 -90 335 50 399 50 23
124 24 174 4z m-1638 -282 c-197 -208 -421 -427 -452 -444 -32 -16 -59 -19
-198 -19 l-160 0 0 31 c0 20 -10 40 -29 60 -57 57 -149 28 -165 -52 -3 -18 -6
-130 -6 -250 l0 -219 -246 0 -247 0 -67 64 c-74 69 -107 82 -158 60 -38 -16
-63 -64 -55 -107 3 -16 30 -55 60 -87 l54 -59 -16 -55 c-9 -31 -19 -56 -22
-56 -22 0 -175 93 -210 127 -68 67 -91 188 -51 268 59 119 271 477 299 505 23
24 52 41 82 48 32 8 205 12 566 12 l521 0 152 104 c84 57 189 128 233 159 l80
56 45 -45 45 -44 -55 -57z m1832 -410 c15 -16 173 -228 352 -472 l326 -445
-32 -33 c-17 -18 -36 -33 -40 -33 -5 0 -176 134 -381 298 -205 164 -382 304
-394 310 -87 47 -183 -56 -127 -136 8 -12 66 -63 127 -114 62 -50 113 -94 115
-98 3 -7 -114 -246 -137 -279 -7 -11 -48 22 -185 149 -97 89 -176 165 -176
168 0 20 82 631 87 646 3 11 17 30 31 43 24 22 29 23 217 23 l191 0 26 -27z
m-2782 -785 c17 -57 38 -123 46 -147 8 -25 14 -51 14 -58 0 -10 -65 -13 -340
-13 -256 0 -340 3 -340 12 0 9 67 243 85 296 3 9 63 12 254 12 l250 0 31 -102z
m3659 -324 c28 -36 26 -57 -10 -98 -36 -41 -57 -50 -92 -37 -56 22 -59 83 -5
133 39 36 79 37 107 2z m-3821 -791 l-3 -698 -303 -3 -304 -2 6 27 c3 16 53
318 111 673 58 355 108 657 111 673 l6 27 189 0 189 0 -2 -697z m19 -918 c72
-22 183 -126 183 -174 0 -8 -92 -11 -335 -11 -400 0 -375 -8 -375 120 l0 80
238 0 c182 0 250 -4 289 -15z m2436 -65 c9 -30 13 -58 9 -62 -14 -14 -407
-125 -411 -116 -7 19 22 97 44 118 25 23 326 132 336 122 4 -4 14 -32 22 -62z"/>
<path d="M2569 3111 c-21 -22 -29 -39 -29 -66 0 -51 44 -95 95 -95 50 0 74 15
91 57 42 99 -80 180 -157 104z"/>
<path d="M2159 612 c-54 -48 -39 -130 28 -158 99 -42 180 80 104 157 -40 39
-89 40 -132 1z"/>
</g>
</svg>
