<?xml version="1.0" standalone="no"?>
<!DOCTYPE svg PUBLIC "-//W3C//DTD SVG 20010904//EN"
 "http://www.w3.org/TR/2001/REC-SVG-20010904/DTD/svg10.dtd">
<svg version="1.0" xmlns="http://www.w3.org/2000/svg"
 width="512.000000pt" height="512.000000pt" viewBox="0 0 512.000000 512.000000"
 preserveAspectRatio="xMidYMid meet">

<g transform="translate(0.000000,512.000000) scale(0.100000,-0.100000)"
fill="#000000" stroke="none">
<path d="M2327 5105 c-52 -20 -109 -66 -132 -109 -15 -27 -31 -40 -65 -51 -97
-33 -178 -115 -222 -224 -22 -54 -23 -68 -23 -356 0 -282 1 -304 22 -370 83
-265 356 -422 621 -360 181 43 329 182 385 360 20 65 22 91 22 345 0 151 -4
292 -8 312 -4 20 -23 60 -42 89 -19 28 -35 64 -35 79 0 96 -101 199 -212 216
-23 4 -57 18 -74 30 -67 51 -161 66 -237 39z m126 -146 c12 -7 33 -25 47 -41
22 -27 32 -30 89 -32 56 -2 66 -5 87 -29 19 -22 24 -40 24 -83 0 -50 3 -58 40
-96 37 -39 40 -46 40 -101 l0 -58 -42 34 c-190 154 -467 153 -657 -1 l-43 -35
3 80 c3 66 9 86 31 121 32 47 99 90 155 99 41 6 83 37 83 62 2 64 84 110 143
80z m68 -459 c160 -50 259 -186 259 -355 0 -169 -99 -305 -259 -355 -80 -25
-142 -25 -222 0 -115 36 -197 114 -240 229 -30 80 -24 214 14 287 50 99 124
162 226 195 74 24 145 23 222 -1z"/>
<path d="M3867 5106 c-21 -16 -37 -67 -37 -117 l0 -36 -58 -6 c-96 -8 -166
-55 -209 -140 -23 -46 -25 -59 -21 -136 4 -68 10 -97 31 -138 143 -279 533
-282 669 -5 98 198 4 402 -192 419 l-60 6 0 36 c0 82 -30 130 -80 130 -14 0
-33 -6 -43 -13z m-7 -332 l50 -26 50 26 c59 31 84 32 127 6 38 -23 47 -52 41
-121 -10 -101 -112 -189 -218 -189 -106 0 -208 88 -218 189 -6 69 3 98 41 121
43 26 68 25 127 -6z"/>
<path d="M1167 4206 c-32 -24 -37 -76 -37 -358 l0 -278 -59 0 c-77 0 -153 -38
-196 -99 -28 -39 -30 -50 -30 -126 0 -76 2 -87 30 -126 19 -27 50 -54 84 -71
l53 -28 359 0 359 0 0 -1053 c0 -644 4 -1065 10 -1086 15 -55 31 -60 168 -61
l122 0 -2 -347 -3 -346 -122 -41 c-67 -23 -132 -49 -143 -58 -43 -38 -12 -128
45 -128 22 0 305 92 342 112 13 6 27 27 33 47 6 21 10 189 10 399 l0 362 220
0 220 0 0 -362 c0 -210 4 -378 10 -399 6 -20 20 -41 33 -47 37 -20 320 -112
342 -112 56 0 88 88 46 127 -11 10 -78 37 -150 61 l-131 43 0 345 0 344 128 0
c115 0 130 2 150 20 l22 21 0 1079 0 1079 38 6 c20 3 73 14 117 24 410 95 721
460 742 872 5 101 5 107 -18 127 -26 25 -65 28 -92 8 -22 -17 -37 -67 -37
-126 0 -25 -9 -82 -20 -127 -79 -332 -348 -573 -696 -626 -38 -6 -41 -5 -52
26 -18 50 -65 100 -123 132 l-54 30 -475 0 -475 0 -54 -30 c-58 -32 -105 -82
-123 -132 l-12 -33 -356 0 c-345 0 -357 1 -378 20 -14 14 -22 33 -22 55 0 61
27 75 144 75 113 1 131 8 146 61 13 44 13 634 0 678 -11 39 -35 60 -70 60 -14
0 -33 -6 -43 -13z m863 -2011 l0 -1125 -70 0 -70 0 0 1080 c0 924 2 1085 14
1109 16 30 67 60 104 61 l22 0 0 -1125z m464 1010 c-43 -63 -80 -115 -84 -115
-4 0 -41 52 -84 115 l-76 115 160 0 160 0 -76 -115z m372 99 c68 -32 64 39 64
-1154 l0 -1080 -70 0 -70 0 0 1125 0 1125 21 0 c12 0 36 -7 55 -16z m-586
-299 c81 -122 94 -134 130 -134 36 0 49 12 130 134 40 61 77 114 81 120 5 5 9
-178 9 -423 l0 -432 -220 0 -220 0 0 432 c0 245 4 428 9 423 4 -6 41 -59 81
-120z m350 -999 l0 -114 -32 -20 c-46 -28 -133 -52 -188 -52 -55 0 -142 24
-187 52 l-33 20 0 114 0 114 220 0 220 0 0 -114z m-220 -330 c80 0 118 5 163
20 l57 21 0 -324 0 -323 -220 0 -220 0 0 323 0 324 58 -21 c44 -15 82 -20 162
-20z"/>
</g>
</svg>
