<?xml version="1.0" standalone="no"?>
<!DOCTYPE svg PUBLIC "-//W3C//DTD SVG 20010904//EN"
 "http://www.w3.org/TR/2001/REC-SVG-20010904/DTD/svg10.dtd">
<svg version="1.0" xmlns="http://www.w3.org/2000/svg"
 width="512.000000pt" height="512.000000pt" viewBox="0 0 512.000000 512.000000"
 preserveAspectRatio="xMidYMid meet">

<g transform="translate(0.000000,512.000000) scale(0.100000,-0.100000)"
fill="#000000" stroke="none">
<path d="M2381 4584 c-220 -37 -428 -141 -594 -297 -54 -50 -58 -58 -55 -92 2
-27 11 -44 30 -58 37 -28 68 -17 141 51 116 109 237 178 382 220 336 98 677
17 932 -220 73 -68 104 -79 141 -51 19 14 28 31 30 58 3 34 -1 42 -55 92 -259
243 -613 354 -952 297z"/>
<path d="M796 4388 l-220 -133 -266 -570 c-317 -680 -313 -671 -306 -700 18
-72 306 -403 466 -536 436 -362 840 -429 1232 -203 l48 27 98 -95 c99 -97 228
-196 362 -282 116 -73 314 -169 349 -168 42 1 268 118 409 212 126 84 326 249
363 300 13 16 28 30 35 30 6 0 47 -20 90 -44 349 -197 746 -131 1159 193 138
108 359 349 469 511 27 39 36 62 32 80 -8 40 -355 783 -376 804 -42 43 -120
11 -120 -49 0 -19 63 -166 170 -394 l170 -363 -67 -87 c-91 -117 -328 -352
-438 -434 -49 -37 -135 -90 -190 -117 -265 -132 -497 -138 -727 -18 l-78 40
25 45 c66 111 95 269 76 412 -6 50 -14 97 -17 105 -4 9 9 20 43 32 63 25 160
22 235 -6 64 -24 145 -91 179 -148 29 -49 47 -62 84 -62 37 0 51 14 91 88 39
73 110 134 213 183 47 22 102 48 121 57 63 31 64 27 -74 487 -94 313 -131 424
-147 438 -18 15 -44 17 -195 17 l-174 0 0 104 0 103 78 52 c43 28 82 51 88 51
5 0 83 -45 174 -99 l165 -99 40 -83 c47 -98 74 -120 123 -100 17 7 35 25 42
41 11 26 7 40 -37 137 l-48 108 -220 133 c-121 72 -230 132 -242 132 -27 0
-288 -171 -302 -199 -7 -12 -11 -92 -11 -204 0 -244 -17 -227 232 -227 l185 0
98 -327 c54 -181 100 -333 102 -339 2 -5 -34 -29 -81 -53 -53 -27 -110 -67
-157 -110 l-73 -67 -60 45 c-151 114 -328 147 -481 90 -41 -15 -51 -16 -57 -5
-22 39 -101 134 -130 157 -102 78 -196 110 -322 110 -138 0 -275 -38 -410
-112 l-59 -32 -57 31 c-173 95 -385 136 -534 102 -113 -25 -240 -116 -307
-220 l-32 -49 -46 18 c-146 57 -327 23 -477 -90 l-60 -45 -73 67 c-47 43 -104
83 -157 110 -47 24 -83 48 -81 53 2 6 48 158 102 339 l98 327 187 0 c247 0
230 -17 230 229 0 110 -4 190 -11 202 -14 28 -275 199 -302 199 -12 0 -121
-60 -241 -132z m326 -89 l78 -52 0 -103 0 -104 -174 0 c-151 0 -177 -2 -195
-17 -16 -14 -53 -125 -147 -438 -138 -460 -137 -456 -74 -487 19 -9 74 -35
121 -57 103 -49 174 -110 213 -183 40 -74 54 -88 91 -88 37 0 55 13 84 62 34
57 115 124 179 148 71 27 180 30 235 7 37 -16 38 -17 30 -54 -4 -21 -8 -101
-8 -178 0 -151 17 -228 71 -321 27 -48 28 -47 -63 -93 -290 -145 -624 -77
-959 194 -110 90 -285 270 -376 386 l-68 86 267 572 267 573 166 99 c91 54
169 99 174 99 6 0 45 -23 88 -51z m1116 -1076 c37 -9 118 -43 181 -75 63 -32
125 -58 137 -58 11 0 73 26 136 58 143 72 236 96 352 90 106 -5 176 -38 241
-111 89 -98 128 -210 129 -362 0 -178 -36 -254 -206 -430 -152 -159 -381 -322
-589 -422 l-66 -31 -120 63 c-212 111 -392 243 -537 396 -158 166 -196 247
-196 418 0 233 106 414 275 467 57 18 185 17 263 -3z"/>
<path d="M2415 4184 c-168 -36 -395 -186 -395 -262 0 -41 30 -72 71 -72 23 0
45 13 87 51 99 87 256 149 382 149 126 0 283 -62 382 -149 42 -38 64 -51 87
-51 41 0 71 31 71 72 0 50 -98 137 -225 198 -158 77 -302 97 -460 64z"/>
<path d="M2491 3790 c-54 -12 -121 -50 -155 -91 -41 -48 -32 -96 23 -119 27
-11 34 -10 63 9 57 36 112 61 138 61 26 0 81 -25 138 -61 29 -19 36 -20 63 -9
57 24 64 72 18 124 -60 69 -186 107 -288 86z"/>
<path d="M2335 1525 c-33 -32 -31 -67 5 -108 76 -87 232 -114 350 -61 68 30
120 82 120 120 0 32 -42 74 -74 74 -13 0 -37 -11 -53 -24 -45 -37 -73 -48
-123 -48 -50 0 -78 11 -123 48 -37 31 -72 30 -102 -1z"/>
<path d="M2063 1265 c-51 -21 -58 -75 -17 -125 32 -38 131 -109 201 -144 185
-93 441 -93 626 0 70 35 169 106 201 144 54 65 16 142 -64 130 -8 -1 -41 -24
-73 -51 -123 -103 -228 -143 -377 -143 -148 0 -253 40 -376 142 -72 59 -82 63
-121 47z"/>
<path d="M1750 980 c-12 -12 -20 -33 -20 -54 0 -29 10 -43 73 -102 419 -399
1095 -399 1515 0 62 59 72 73 72 102 0 42 -30 74 -69 74 -21 0 -47 -17 -102
-66 -217 -196 -483 -284 -761 -254 -213 24 -392 105 -557 254 -80 72 -114 83
-151 46z"/>
</g>
</svg>
