<?xml version="1.0" standalone="no"?>
<!DOCTYPE svg PUBLIC "-//W3C//DTD SVG 20010904//EN"
 "http://www.w3.org/TR/2001/REC-SVG-20010904/DTD/svg10.dtd">
<svg version="1.0" xmlns="http://www.w3.org/2000/svg"
 width="512.000000pt" height="512.000000pt" viewBox="0 0 512.000000 512.000000"
 preserveAspectRatio="xMidYMid meet">

<g transform="translate(0.000000,512.000000) scale(0.100000,-0.100000)"
fill="#000000" stroke="none">
<path d="M2414 4781 c-43 -26 -63 -56 -190 -271 -100 -171 -123 -203 -306
-415 -109 -126 -201 -240 -204 -253 -14 -51 37 -101 89 -88 16 4 88 79 202
211 l176 206 27 -20 c15 -11 48 -41 74 -68 l46 -48 -172 -222 c-95 -123 -191
-258 -213 -300 -87 -165 -125 -365 -103 -541 14 -110 41 -204 105 -359 88
-213 189 -313 381 -379 72 -25 93 -27 229 -28 129 0 160 3 225 23 137 42 244
120 319 231 39 59 125 264 155 370 61 218 32 476 -77 683 -22 42 -118 177
-213 300 l-172 222 36 38 c20 21 54 52 74 68 l37 30 283 -334 c156 -184 298
-360 317 -391 74 -124 111 -259 111 -407 0 -125 -18 -195 -132 -504 -226 -611
-252 -709 -339 -1291 l-22 -152 -181 -46 c-100 -25 -229 -58 -289 -73 l-107
-28 -148 37 c-81 21 -220 56 -308 79 l-162 41 -21 142 c-93 608 -110 672 -328
1255 -138 370 -158 446 -149 581 11 163 60 299 160 439 25 36 46 71 46 77 0
28 -24 63 -51 74 -43 18 -75 -4 -140 -98 -110 -160 -160 -318 -162 -517 -2
-175 10 -223 160 -620 132 -349 187 -520 228 -701 23 -100 95 -541 95 -577 0
-12 -66 2 -310 64 -334 85 -387 92 -493 64 -83 -21 -153 -60 -213 -117 -106
-100 -155 -212 -155 -356 0 -125 26 -205 96 -296 l35 -46 -356 0 -355 0 -24
-25 c-32 -31 -32 -69 0 -100 l24 -25 1074 0 c1072 0 1074 0 1101 21 34 27 36
77 3 107 -22 21 -26 21 -607 24 -663 4 -637 1 -730 85 -79 71 -112 148 -111
259 1 126 74 242 188 299 51 26 68 30 143 29 77 0 171 -22 1000 -233 503 -128
932 -237 953 -242 l37 -10 0 -94 0 -95 -321 0 c-186 0 -328 -4 -338 -10 -10
-5 -24 -22 -30 -39 -10 -24 -10 -34 3 -59 8 -16 23 -32 31 -36 9 -3 604 -6
1321 -6 l1305 0 24 25 c32 31 32 69 0 100 l-24 25 -336 0 -337 0 27 31 c63 76
105 197 105 304 0 140 -46 251 -145 350 -68 68 -135 107 -220 130 -110 28
-164 21 -517 -69 -302 -77 -328 -82 -328 -64 0 30 58 403 81 518 29 145 97
378 159 545 221 595 229 620 237 777 7 139 -6 236 -49 358 -58 164 -74 187
-455 636 -282 332 -292 345 -407 540 -65 109 -127 210 -139 222 -38 41 -75 55
-126 48 -55 -9 -62 -9 -126 -1 -40 5 -56 2 -81 -14z m64 -366 c-4 -130 -7
-157 -27 -202 -13 -29 -27 -53 -30 -53 -13 0 -143 138 -140 147 2 6 47 83 99
171 110 187 104 191 98 -63z m362 -113 c0 -11 -139 -147 -144 -141 -3 2 -15
27 -27 54 -21 45 -24 68 -26 240 l-4 190 101 -168 c55 -93 100 -171 100 -175z
m-234 -270 c23 -31 124 -163 224 -292 194 -251 247 -338 282 -469 26 -98 29
-276 5 -372 -24 -97 -104 -296 -145 -357 -39 -60 -113 -120 -186 -152 -121
-54 -352 -50 -470 9 -124 62 -176 126 -250 315 -66 167 -79 230 -79 366 1 231
45 326 301 656 101 132 203 265 226 296 22 31 43 57 46 57 3 0 24 -26 46 -57z
m1575 -2914 c75 -34 120 -76 160 -150 32 -59 34 -69 34 -158 0 -110 -18 -160
-81 -230 -69 -76 -169 -110 -326 -110 -68 0 -78 2 -78 18 0 35 -60 143 -105
187 -25 26 -76 61 -113 78 l-67 32 -230 7 c-222 6 -234 7 -355 41 -69 19 -118
37 -110 40 8 4 256 67 550 142 598 152 611 153 721 103z m-596 -489 c44 -12
137 -99 147 -137 l6 -22 -244 0 -244 0 0 85 0 85 148 0 c81 0 165 -5 187 -11z"/>
<path d="M2440 3502 c-27 -10 -69 -40 -106 -77 -93 -92 -99 -117 -99 -400 l0
-230 33 -67 c58 -119 161 -183 292 -183 132 1 234 65 292 183 l33 67 0 230 c0
283 -6 308 -99 400 -42 41 -77 66 -111 78 -63 22 -175 21 -235 -1z m199 -147
c41 -21 79 -69 91 -117 7 -25 10 -112 8 -227 -3 -159 -6 -192 -22 -224 -61
-123 -251 -123 -312 0 -16 32 -19 65 -22 224 -4 240 9 289 92 340 38 23 125
25 165 4z"/>
</g>
</svg>
